Coordinates
version=1
nRows=13
nColumns=38
inDegrees=no

Units are S.I. units (second, meters, Newtons, ...)
If the header above contains a line with 'inDegrees', this indicates whether rotational values are in degrees (yes) or radians (no).

endheader
time	pelvis_tilt	pelvis_list	pelvis_rotation	pelvis_tx	pelvis_ty	pelvis_tz	hip_flexion_r	hip_adduction_r	hip_rotation_r	knee_angle_r	ankle_angle_r	subtalar_angle_r	mtp_angle_r	hip_flexion_l	hip_adduction_l	hip_rotation_l	knee_angle_l	ankle_angle_l	subtalar_angle_l	mtp_angle_l	lumbar_extension	lumbar_bending	lumbar_rotation	arm_flex_r	arm_add_r	arm_rot_r	elbow_flex_r	pro_sup_r	wrist_flex_r	wrist_dev_r	arm_flex_l	arm_add_l	arm_rot_l	elbow_flex_l	pro_sup_l	wrist_flex_l	wrist_dev_l
0	0.29613	1.41695	1.14722	0.732775	-0.447383	0.962788	0.318503	0.0467647	-0.152253	0.377757	0.119511	0	0	0.160705	-0.0469805	-0.234785	0.0982294	0.0822643	0	0	0.0439353	0.0818015	0.0620539	-0.184264	-0.250207	0.199288	0.725082	1.17366	0	0	-0.106266	-0.201271	0.399206	0.630662	0.972145	0	0
0.01	0.372949	1.41683	1.06999	0.733371	-0.447067	0.964381	0.314859	0.0539749	-0.166234	0.386128	0.118778	0	0	0.156796	-0.0597368	-0.234085	0.102768	0.0859127	0	0	0.0386547	0.0952408	0.0641932	-0.178088	-0.254928	0.209016	0.725026	1.16943	0	0	-0.0979001	-0.195099	0.409643	0.621807	0.953168	0	0
0.02	0.396398	1.42002	1.04762	0.734264	-0.446251	0.96511	0.304254	0.056052	-0.169669	0.377233	0.117314	0	0	0.151193	-0.0620551	-0.231678	0.103453	0.0890082	0	0	0.0359607	0.0968339	0.0639328	-0.173436	-0.256494	0.219815	0.725862	1.16769	0	0	-0.0938039	-0.194467	0.416658	0.621559	0.932063	0	0
0.03	0.412553	1.42175	1.03083	0.735206	-0.445429	0.965666	0.296122	0.0582532	-0.171881	0.369365	0.116145	0	0	0.146498	-0.063903	-0.230493	0.10265	0.091111	0	0	0.0354326	0.0980907	0.0651023	-0.16928	-0.257404	0.227388	0.725792	1.16654	0	0	-0.0904468	-0.193763	0.422352	0.621024	0.922786	0	0
0.04	0.423208	1.42208	1.01792	0.73619	-0.44461	0.966059	0.289742	0.0608849	-0.173012	0.36142	0.114663	0	0	0.142663	-0.0657073	-0.230614	0.100603	0.0913125	0	0	0.0367492	0.0995154	0.0675102	-0.165229	-0.258231	0.233783	0.725212	1.16532	0	0	-0.0877362	-0.193135	0.428918	0.620551	0.91808	0	0
0.05	0.426281	1.42131	1.01122	0.737176	-0.443818	0.966236	0.286485	0.0630426	-0.173121	0.356488	0.114314	0	0	0.139816	-0.0670168	-0.232247	0.097645	0.0899509	0	0	0.0397165	0.100752	0.0708914	-0.16167	-0.258987	0.238744	0.724822	1.16427	0	0	-0.0858414	-0.192491	0.434383	0.620789	0.915462	0	0
0.06	0.366972	1.40918	1.07339	0.737263	-0.44474	0.965377	0.303689	0.0600272	-0.175688	0.356865	0.113374	0	0	0.150122	-0.0666937	-0.250551	0.0754717	0.0743207	0	0	0.0564965	0.0987755	0.0671013	-0.155471	-0.259262	0.246213	0.722337	1.15898	0	0	-0.0819566	-0.192267	0.439808	0.619733	0.904867	0	0
0.07	0.434636	1.41663	0.992387	0.739021	-0.442279	0.966109	0.283227	0.0707451	-0.167675	0.347028	0.112985	0	0	0.135111	-0.0714578	-0.239246	0.0888425	0.0847817	0	0	0.0481089	0.106718	0.0807286	-0.155647	-0.262587	0.24987	0.726066	1.15778	0	0	-0.0829388	-0.190448	0.441786	0.621036	0.903597	0	0
0.08	0.446307	1.41402	0.977166	0.739738	-0.441305	0.965869	0.281617	0.0754011	-0.166593	0.343855	0.11324	0	0	0.132118	-0.0745112	-0.241683	0.0835159	0.0816671	0	0	0.0521957	0.111058	0.0838367	-0.153422	-0.264149	0.252358	0.726937	1.15629	0	0	-0.0823593	-0.189211	0.443144	0.621649	0.904076	0	0
0.09	0.448314	1.42215	0.979361	0.740393	-0.43921	0.96531	0.273378	0.0721656	-0.157265	0.349696	0.123488	0	0	0.118584	-0.0686321	-0.238695	0.0740525	0.0767086	0	0	0.0502629	0.105215	0.0788332	-0.152711	-0.262929	0.255728	0.729982	1.14784	0	0	-0.0852074	-0.193864	0.445117	0.629876	0.910473	0	0
0.1	0.465068	1.41865	0.959133	0.740972	-0.438358	0.964788	0.273913	0.07787	-0.155086	0.349486	0.124021	0	0	0.116304	-0.0729116	-0.241654	0.0685263	0.0717485	0	0	0.0542382	0.111119	0.0815487	-0.150685	-0.265006	0.256944	0.732019	1.14522	0	0	-0.085021	-0.192753	0.447106	0.630732	0.913296	0	0
0.11	0.480536	1.41456	0.940797	0.741462	-0.437566	0.964178	0.275551	0.0836704	-0.153277	0.350144	0.124534	0	0	0.115114	-0.0774461	-0.24402	0.0639402	0.0680696	0	0	0.0587319	0.117306	0.083481	-0.148479	-0.267053	0.25831	0.733737	1.14169	0	0	-0.084797	-0.191723	0.44994	0.630988	0.917044	0	0
0.12	0.496406	1.41116	0.922976	0.741807	-0.43685	0.963573	0.277164	0.0888172	-0.152246	0.352048	0.125482	0	0	0.113945	-0.0816442	-0.245483	0.0608767	0.0670696	0	0	0.0620643	0.123133	0.0844882	-0.145757	-0.268994	0.259843	0.734987	1.13798	0	0	-0.0839	-0.190617	0.453612	0.630019	0.919992	0	0
